<svg xmlns="http://www.w3.org/2000/svg" width="621" height="437.633" viewBox="0 0 621 437.633"><defs><style>.a{fill:#135af7;}.b{fill:#f2f2f2;}.c{fill:#3f3d56;}.d{fill:#2f2e41;}.e{fill:#a0616a;}.f{fill:#e6e6e6;}.g{fill:#ffb8b8;}.h{fill:#ccc;}</style></defs><circle class="a" cx="33.819" cy="33.819" r="33.819" transform="translate(283.338 369.067)"/><path class="b" d="M729.6,599.593c18.92-5.682,39.034-11.607,54.039-25.115,13.408-12.071,22.46-30.5,16.906-48.6-5.543-18.065-22.147-30.111-39.29-36.1-9.723-3.4-19.895-5.283-30.063-6.764-11.053-1.61-22.156-2.929-33.253-4.2q-67.4-7.709-135.308-9.419c-22.339-.563-44.673-.549-67.015-.225-19.953.29-40.967.282-59.476-8.2-14.394-6.595-27.458-18.592-31.469-34.358-4.63-18.2,3.91-36.733,16.16-49.914a130.843,130.843,0,0,1,21.788-18.172c8.445-5.833,17.185-11.253,26.115-16.313A363.659,363.659,0,0,1,523.7,316.87c9.37-3.407,18.88-6.347,28.472-9.059a243.621,243.621,0,0,0,24.053-7.7c15.133-6.031,29.526-16.248,33.374-33,3.647-15.874-2.5-33.106-13.281-44.9-12.471-13.643-31.275-19.624-49.3-20.591-20.239-1.086-40.011,3.979-59.034,10.407-20.289,6.856-40.141,14.74-60.858,20.294a409.475,409.475,0,0,1-62.635,11.643c-10.353,1.1-21.019,2.347-31.434,1.5-8.729-.707-17.413-3.274-23.845-9.469-5.516-5.312-8.8-12.612-7.672-20.315.205-1.4,2.331-.8,2.127.586-1.375,9.377,5,18.019,12.854,22.445,9.078,5.116,20.125,5.123,30.232,4.538a395.415,395.415,0,0,0,65.075-9.407c21.021-4.8,41.291-11.665,61.539-19,19.23-6.963,38.889-13.76,59.433-15.268,17.826-1.309,36.577,1.288,52.106,10.6a57.643,57.643,0,0,1,26.882,37.508c3.125,15.31-1.2,30.72-12.792,41.4-12,11.062-28.452,15.791-43.786,20.147a401.139,401.139,0,0,0-56.9,20.367,357.176,357.176,0,0,0-53.522,30.09c-16.355,11.177-32.5,25.24-37.669,45.179a41.62,41.62,0,0,0,2.067,27.911,51.005,51.005,0,0,0,16.367,19.423c16.41,12.075,37.092,14.554,56.914,14.8,22.263.277,44.526-.474,66.8-.109q68.078,1.117,135.878,8.288,16.989,1.8,33.935,3.975c10.162,1.306,20.357,2.6,30.348,4.922,17.764,4.123,35.05,12.051,46.091,27.112a42.873,42.873,0,0,1,3.652,46.881c-8.479,16.682-24.36,27.292-41.225,34.263a292.5,292.5,0,0,1-27.755,9.371,1.1,1.1,0,0,1-.586-2.127Z" transform="translate(-210.407 -164.788)"/><circle class="b" cx="17.645" cy="17.645" r="17.645" transform="translate(74.911 33.451)"/><circle class="b" cx="17.645" cy="17.645" r="17.645" transform="translate(197.321 66.903)"/><circle class="b" cx="17.645" cy="17.645" r="17.645" transform="translate(300.983)"/><circle class="b" cx="17.645" cy="17.645" r="17.645" transform="translate(365.68 74.99)"/><circle class="b" cx="17.645" cy="17.645" r="17.645" transform="translate(278.192 161.743)"/><circle class="b" cx="17.645" cy="17.645" r="17.645" transform="translate(167.178 203.649)"/><circle class="b" cx="17.645" cy="17.645" r="17.645" transform="translate(284.809 269.081)"/><circle class="b" cx="17.645" cy="17.645" r="17.645" transform="translate(411.262 305.841)"/><circle class="b" cx="17.645" cy="17.645" r="17.645" transform="translate(559.036 297.753)"/><path class="a" d="M569.229,220.372c-52.854.373-96.131,43.325-96.882,96.175-.007.488-.01,3.919-.01,8.406a24.811,24.811,0,0,0,24.807,24.81h0a24.825,24.825,0,0,0,24.821-24.842c0-3.058,0-5.171,0-5.3a47.053,47.053,0,1,1,72.432,39.612l.009.01s-35.31,22.732-46.075,53.916l.009,0a69.113,69.113,0,0,0-2.848,19.68c0,2.739.161,26.7.472,46.154a25.575,25.575,0,0,0,25.578,25.16h0a25.582,25.582,0,0,0,25.58-25.74c-.108-17.813-.167-38.555-.167-40.06,0-19.148,18.472-38.226,33.645-50.668a102.047,102.047,0,0,0,35.1-55.874,63.784,63.784,0,0,0,1.838-13.846,97.6,97.6,0,0,0-98.3-97.594Z" transform="translate(-255.694 -170.376)"/><path class="c" d="M797.787,747H178.538a.875.875,0,1,1,0-1.751H797.787a.875.875,0,1,1,0,1.751Z" transform="translate(-177.662 -309.368)"/><circle class="d" cx="22.056" cy="22.056" r="22.056" transform="translate(439.976 156.593)"/><path class="e" d="M568.221,569.607h-9.013l-4.288-34.766h13.3Z" transform="translate(-146.946 -141.629)"/><path class="d" d="M548.053,578.626h17.383V589.57H537.109A10.945,10.945,0,0,1,548.053,578.626Z" transform="translate(-142.23 -153.224)"/><path class="e" d="M663.221,569.607h-9.013l-4.288-34.766h13.3Z" transform="translate(-172.103 -141.629)"/><path class="d" d="M643.053,578.626h17.383V589.57H632.109A10.945,10.945,0,0,1,643.053,578.626Z" transform="translate(-167.386 -153.224)"/><circle class="e" cx="18.057" cy="18.057" r="18.057" transform="translate(440.623 164.719)"/><path class="d" d="M792.937,486.215l8.08-18.564a23.072,23.072,0,0,0-5.109-26.173,23.425,23.425,0,0,0-2.257-1.963,22.743,22.743,0,0,0-13.961-4.83,23.657,23.657,0,0,0-9.851,2.191c-.265.118-.522.243-.787.368-.507.243-1.007.507-1.492.779a23.29,23.29,0,0,0-11.543,17.556l-3.566,29.878c-.9,2.345-32.892,87.04-21.7,151.7a3.284,3.284,0,0,0,2.808,2.7L744.9,641.4a3.306,3.306,0,0,0,3.683-2.6l19.034-90.73a2.575,2.575,0,0,1,5-.169l26.893,95.413a3.287,3.287,0,0,0,3.169,2.412,3.773,3.773,0,0,0,.64-.059L817.176,643a3.287,3.287,0,0,0,2.669-3.536C817.809,616.756,806.987,503,792.937,486.215Z" transform="translate(-323.495 -227.128)"/><path class="e" d="M706.084,419.035a7.393,7.393,0,0,0,7.789,8.237l10.093,24.256L731.6,440.21l-10.755-21.3a7.433,7.433,0,0,0-14.762.124Z" transform="translate(-317.578 -221.231)"/><path class="e" d="M797.178,527.281a7.393,7.393,0,0,0,6.2-9.494l21.236-15.467-12.785-4.788-18.206,15.422a7.433,7.433,0,0,0,3.56,14.327Z" transform="translate(-339.499 -243.77)"/><path class="d" d="M743.7,474.577a12.54,12.54,0,0,1-2.425-.239,11.987,11.987,0,0,1-8.784-7.07l-14.141-17.243a3.309,3.309,0,0,1,.817-4.912l10.061-6.228a3.308,3.308,0,0,1,4.57,1.1l9.967,16.42L762.852,442.3a7.147,7.147,0,0,1,8.315,11.441l-19.05,17.378A11.949,11.949,0,0,1,743.7,474.577Z" transform="translate(-320.642 -228.109)"/><path class="d" d="M818.839,502.451h-.078a3.314,3.314,0,0,1-2.434-1.154l-8.945-10.435a3.308,3.308,0,0,1,.677-4.906l16.749-11.166-15.173-18.242a7.147,7.147,0,0,1,10.945-8.957l18.441,18.022a12.149,12.149,0,0,1-2.7,19.806l-15.072,15.993a3.314,3.314,0,0,1-2.408,1.039Z" transform="translate(-344.205 -230.051)"/><path class="f" d="M791.709,460.415a3.408,3.408,0,0,1-.429-.027,3.28,3.28,0,0,1-2.728-2.256l-6.721-20.607A2.266,2.266,0,0,1,783,434.787l.218-.1c.2-.094.394-.187.594-.276a23.948,23.948,0,0,1,10-2.223,23.032,23.032,0,0,1,12.617,3.791,2.3,2.3,0,0,1,.663,3.157l-12.609,19.753a3.276,3.276,0,0,1-2.777,1.529Z" transform="translate(-337.621 -226.466)"/><circle class="d" cx="7.217" cy="7.217" r="7.217" transform="translate(472.203 154.368)"/><path class="d" d="M789.226,361.365h0a19.115,19.115,0,0,0-19.115,19.115v8.087h9.947l4.757-8.087,1.427,8.087h30.186l-8.087-8.087a19.115,19.115,0,0,0-19.115-19.115Z" transform="translate(-334.546 -207.713)"/><path class="d" d="M834.809,362.641A11.138,11.138,0,0,1,846.925,355c4.6.769,8.236,4.466,10.4,8.6s3.167,8.751,4.624,13.18,3.522,8.884,7.2,11.751,9.32,3.645,12.932.7a14.791,14.791,0,0,1-27.553,5.28c-1.906-3.391-2.4-7.364-2.963-11.212s-1.3-7.83-3.575-10.984-6.534-5.215-10.148-3.778Z" transform="translate(-351.679 -205.999)"/><path class="c" d="M504.025,352.579h0a24.811,24.811,0,0,1-24.808-24.807c0-4.49,0-7.921.01-8.409a96.683,96.683,0,0,1,11.292-44.045,96.9,96.9,0,0,0-18.644,55.808c-.007.488-.01,3.919-.01,8.406a24.811,24.811,0,0,0,24.807,24.81h0a24.83,24.83,0,0,0,23.885-18.079A24.719,24.719,0,0,1,504.025,352.579Z" transform="translate(-255.569 -184.927)"/><path class="c" d="M592.707,287.222a47.055,47.055,0,0,1,40.92,65.736,47.05,47.05,0,1,0-78.979-49.247A46.957,46.957,0,0,1,592.707,287.222Z" transform="translate(-277.491 -184.95)"/><path class="c" d="M604.766,554.269h0A25.576,25.576,0,0,1,579.189,529.1c-.311-19.445-.472-43.409-.472-46.148a69.111,69.111,0,0,1,2.848-19.68l-.009,0a69.876,69.876,0,0,1,4.039-9.338,80.91,80.91,0,0,0-11.391,21.1l.009,0a69.109,69.109,0,0,0-2.848,19.68c0,2.739.161,26.7.472,46.154a25.575,25.575,0,0,0,25.577,25.16h0a25.585,25.585,0,0,0,24.556-18.411,25.482,25.482,0,0,1-17.2,6.648Z" transform="translate(-281.917 -232.226)"/><path class="g" d="M126.54,570.063h9.013l4.288-34.766h-13.3Z" transform="translate(-33.508 -141.75)"/><path class="d" d="M0,0H28.328V10.945H10.945A10.945,10.945,0,0,1,0,0H0Z" transform="translate(119.426 436.682) rotate(179.997)"/><path class="g" d="M82.54,570.063h9.013L95.841,535.3h-13.3Z" transform="translate(-21.857 -141.75)"/><path class="d" d="M0,0H28.328V10.945H10.945A10.945,10.945,0,0,1,0,0H0Z" transform="translate(87.077 436.682) rotate(179.997)"/><path class="d" d="M266.573,676.966l-8.8-.463a3.436,3.436,0,0,1-3.248-3.652l10.523-116.5L313.5,569.424l4.669-1.274-14.6,103.136a3.453,3.453,0,0,1-3.2,2.9l-9.491.442a3.437,3.437,0,0,1-3.626-3.526l1.72-61.9a1.146,1.146,0,0,0-2.267-.265l-16.584,65.294a3.415,3.415,0,0,1-3.359,2.739C266.7,676.971,266.635,676.97,266.573,676.966Z" transform="translate(-198.013 -259.345)"/><circle class="g" cx="18.057" cy="18.057" r="18.057" transform="translate(76.593 165.564)"/><path class="h" d="M265.5,463.982l1.985,42.838.718,15.585a3.413,3.413,0,0,0,2.26,3.07l46.564,16.868a3.291,3.291,0,0,0,1.176.206,3.414,3.414,0,0,0,3.429-3.52L319.724,462a27.151,27.151,0,0,0-22.6-26.23c-.45-.069-.909-.137-1.367-.2a26.65,26.65,0,0,0-21.442,6.941,27.376,27.376,0,0,0-8.812,21.465Z" transform="translate(-200.914 -227.31)"/><path class="g" d="M358.745,557.346a7.4,7.4,0,0,1-3.947-11.195l-15.791-21,13.626-.843L365.54,544.38a7.434,7.434,0,0,1-6.795,12.966Z" transform="translate(-220.388 -250.862)"/><path class="h" d="M341.254,523.19a3.414,3.414,0,0,1-1.868-1.852L315.6,464.659a9.163,9.163,0,0,1,16.9-7.092l23.79,56.68a3.44,3.44,0,0,1-1.838,4.5l-10.561,4.432A3.412,3.412,0,0,1,341.254,523.19Z" transform="translate(-213.998 -231.699)"/><path class="c" d="M298.361,529.68l22.849-43.751a3.586,3.586,0,0,1,4.834-1.517l33.166,17.321a3.586,3.586,0,0,1,1.517,4.834l-22.849,43.751a3.586,3.586,0,0,1-4.834,1.517l-33.166-17.321A3.587,3.587,0,0,1,298.361,529.68Z" transform="translate(-209.517 -240.189)"/><path class="g" d="M307.343,512.531a7.4,7.4,0,0,0-11.408-3.279l-21.893-14.523L274,508.381l20.8,11.7a7.434,7.434,0,0,0,12.543-7.548Z" transform="translate(-203.174 -243.028)"/><path class="h" d="M272.158,502.179l-17.892-14.173a12.618,12.618,0,0,1-5.752-19.95l16.246-21.291a7.423,7.423,0,0,1,12.594,7.561L264.5,475.353l18.89,8.96a3.436,3.436,0,0,1,1.432,4.94L277.2,501.321a3.442,3.442,0,0,1-2.328,1.552l-.057.009A3.452,3.452,0,0,1,272.158,502.179Z" transform="translate(-195.669 -229.606)"/><path class="d" d="M284.648,405.058a1.569,1.569,0,0,1,1.365-2.073,3.625,3.625,0,0,1,2.556,1.261,10.172,10.172,0,0,0,2.258,1.939,1.943,1.943,0,0,0,2.556-.462,3.555,3.555,0,0,0-.136-2.76,27.133,27.133,0,0,1-1.2-7.183c-.082-2.72.3-5.56,1.808-7.681,1.944-2.738,5.419-3.778,8.709-3.7s6.525,1.091,9.783,1.733c1.125.222,2.447.335,3.2-.537.8-.927.506-2.427.166-3.679-.883-3.248-1.82-6.605-3.871-9.228a13.894,13.894,0,0,0-8.867-4.992,21.275,21.275,0,0,0-9.9,1.124,26.538,26.538,0,0,0-13,9.057,21.494,21.494,0,0,0-4.1,15.88,19.606,19.606,0,0,0,7.268,12.391Z" transform="translate(-203.642 -209.346)"/><path class="c" d="M589.4,716.219a33.814,33.814,0,0,1-12.55-52.558,33.817,33.817,0,1,0,46,48.864,33.8,33.8,0,0,1-33.45,3.694Z" transform="translate(-279.696 -287.762)"/></svg>